<svg width="64" height="64" viewBox="0 0 64 64" fill="none" xmlns="http://www.w3.org/2000/svg">
<g clip-path="url(#clip0_101_45)">
<path d="M44.5263 22.1956C47.8246 24.1086 47.8246 28.8914 44.5263 30.8044L7.42105 52.3267C4.12281 54.2398 2.26637e-06 51.8484 2.09912e-06 48.0222L2.17585e-07 4.97776C5.03373e-08 1.15159 4.12281 -1.23977 7.42105 0.673318L44.5263 22.1956Z" fill="#FF8BD6"/>
<path fill-rule="evenodd" clip-rule="evenodd" d="M23.9263 62.4658L61.0316 40.9436C63.6702 39.4131 63.6702 35.5869 61.0316 34.0564L23.9263 12.5342C21.2877 11.0037 17.9895 12.9168 17.9895 15.9778L17.9895 59.0222C17.9895 62.0832 21.2877 63.9963 23.9263 62.4658ZM61.5263 41.8044C64.8246 39.8914 64.8246 35.1086 61.5263 33.1956L24.4211 11.6733C21.1228 9.76023 17 12.1516 17 15.9778L17 59.0222C17 62.8484 21.1228 65.2398 24.4211 63.3267L61.5263 41.8044Z" fill="#3E274F"/>
<circle r="15" transform="matrix(-1 0 0 1 41 23)" fill="#D71C96"/>
</g>
<defs>
<clipPath id="clip0_101_45">
<rect width="64" height="64" fill="white" transform="matrix(-1 0 0 1 64 0)"/>
</clipPath>
</defs>
</svg>
