<svg width="50" height="50" viewBox="0 0 50 50" fill="none" xmlns="http://www.w3.org/2000/svg">
<circle cx="25" cy="25" r="25" fill="#FF6600"/>
<g clip-path="url(#clip0_2_198)">
<path d="M25 38C28.4478 38 31.7544 36.6304 34.1924 34.1924C36.6304 31.7544 38 28.4478 38 25C38 21.5522 36.6304 18.2456 34.1924 15.8076C31.7544 13.3696 28.4478 12 25 12C21.5522 12 18.2456 13.3696 15.8076 15.8076C13.3696 18.2456 12 21.5522 12 25C12 28.4478 13.3696 31.7544 15.8076 34.1924C18.2456 36.6304 21.5522 38 25 38ZM23.375 22.5625C23.375 23.908 22.647 25 21.75 25C20.853 25 20.125 23.908 20.125 22.5625C20.125 21.217 20.853 20.125 21.75 20.125C22.647 20.125 23.375 21.217 23.375 22.5625ZM18.9631 27.5464C19.1497 27.4386 19.3715 27.4094 19.5796 27.4652C19.7878 27.521 19.9653 27.6571 20.073 27.8438C20.5721 28.7088 21.2902 29.4271 22.1552 29.9263C23.0201 30.4256 24.0013 30.6881 25 30.6875C25.9987 30.6881 26.9799 30.4256 27.8448 29.9263C28.7098 29.4271 29.4279 28.7088 29.927 27.8438C29.98 27.7506 30.0508 27.6688 30.1355 27.6032C30.2202 27.5375 30.317 27.4893 30.4204 27.4612C30.5238 27.4331 30.6318 27.4258 30.738 27.4396C30.8443 27.4534 30.9468 27.4881 31.0396 27.5417C31.1324 27.5953 31.2137 27.6667 31.2787 27.7518C31.3438 27.8369 31.3914 27.9341 31.4188 28.0377C31.4462 28.1412 31.4528 28.2492 31.4383 28.3554C31.4238 28.4616 31.3884 28.5638 31.3342 28.6562C30.6926 29.7683 29.7693 30.6918 28.6573 31.3336C27.5453 31.9755 26.2839 32.3131 25 32.3125C23.7161 32.3131 22.4547 31.9755 21.3427 31.3336C20.2307 30.6918 19.3074 29.7683 18.6658 28.6562C18.558 28.4696 18.5288 28.2479 18.5846 28.0397C18.6404 27.8316 18.7765 27.6541 18.9631 27.5464ZM28.25 25C27.353 25 26.625 23.908 26.625 22.5625C26.625 21.217 27.353 20.125 28.25 20.125C29.147 20.125 29.875 21.217 29.875 22.5625C29.875 23.908 29.147 25 28.25 25Z" fill="white"/>
</g>
<defs>
<clipPath id="clip0_2_198">
<rect width="26" height="26" fill="white" transform="translate(12 12)"/>
</clipPath>
</defs>
</svg>
