<svg width="87" height="71" viewBox="0 0 87 71" fill="none" xmlns="http://www.w3.org/2000/svg">
<circle cx="28.5" cy="28.5" r="28.5" fill="#FE8DF9"/>
<circle cx="58.5" cy="42.5" r="28.5" fill="#EB00EB" fill-opacity="0.9"/>
<g clip-path="url(#clip0_110_90)">
<path d="M58.5 56C54.9196 56 51.4858 54.5777 48.9541 52.0459C46.4223 49.5142 45 46.0804 45 42.5C45 38.9196 46.4223 35.4858 48.9541 32.9541C51.4858 30.4223 54.9196 29 58.5 29C62.0804 29 65.5142 30.4223 68.0459 32.9541C70.5777 35.4858 72 38.9196 72 42.5C72 46.0804 70.5777 49.5142 68.0459 52.0459C65.5142 54.5777 62.0804 56 58.5 56ZM60.1875 39.9688C60.1875 41.366 60.9435 42.5 61.875 42.5C62.8065 42.5 63.5625 41.366 63.5625 39.9688C63.5625 38.5715 62.8065 37.4375 61.875 37.4375C60.9435 37.4375 60.1875 38.5715 60.1875 39.9688ZM64.7691 45.1443C64.5753 45.0324 64.345 45.0021 64.1288 45.06C63.9127 45.1179 63.7284 45.2593 63.6165 45.4531C63.0983 46.3514 62.3525 47.0974 61.4543 47.6158C60.556 48.1342 59.5371 48.4069 58.5 48.4062C57.4629 48.4069 56.444 48.1342 55.5457 47.6158C54.6475 47.0974 53.9018 46.3514 53.3835 45.4531C53.3285 45.3564 53.2549 45.2715 53.167 45.2033C53.079 45.1351 52.9785 45.085 52.8711 45.0559C52.7637 45.0267 52.6516 45.0191 52.5413 45.0334C52.4309 45.0478 52.3245 45.0838 52.2281 45.1395C52.1318 45.1951 52.0474 45.2692 51.9798 45.3576C51.9122 45.446 51.8627 45.5469 51.8343 45.6545C51.8058 45.7621 51.799 45.8742 51.814 45.9845C51.8291 46.0947 51.8658 46.2009 51.9221 46.2969C52.5885 47.4517 53.5473 48.4107 54.702 49.0772C55.8568 49.7437 57.1667 50.0944 58.5 50.0938C59.8333 50.0944 61.1432 49.7437 62.298 49.0772C63.4527 48.4107 64.4115 47.4517 65.0779 46.2969C65.1898 46.1031 65.2201 45.8728 65.1622 45.6566C65.1043 45.4405 64.9628 45.2562 64.7691 45.1443ZM55.125 42.5C56.0565 42.5 56.8125 41.366 56.8125 39.9688C56.8125 38.5715 56.0565 37.4375 55.125 37.4375C54.1935 37.4375 53.4375 38.5715 53.4375 39.9688C53.4375 41.366 54.1935 42.5 55.125 42.5Z" fill="white"/>
</g>
<defs>
<clipPath id="clip0_110_90">
<rect width="27" height="27" fill="white" transform="matrix(-1 0 0 1 72 29)"/>
</clipPath>
</defs>
</svg>
