<svg width="64" height="64" viewBox="0 0 64 64" fill="none" xmlns="http://www.w3.org/2000/svg">
<g clip-path="url(#clip0_101_69)">
<path d="M19.4737 22.1956C16.1754 24.1086 16.1754 28.8914 19.4737 30.8044L56.5789 52.3267C59.8772 54.2398 64 51.8484 64 48.0222L64 4.97776C64 1.15159 59.8772 -1.23977 56.5789 0.673318L19.4737 22.1956Z" fill="#B8FDBB"/>
<path fill-rule="evenodd" clip-rule="evenodd" d="M40.0737 62.4658L2.96842 40.9436C0.329824 39.4131 0.329823 35.5869 2.96842 34.0564L40.0737 12.5342C42.7123 11.0037 46.0105 12.9168 46.0105 15.9778L46.0105 59.0222C46.0105 62.0832 42.7123 63.9963 40.0737 62.4658ZM2.47368 41.8044C-0.824561 39.8914 -0.824564 35.1086 2.47368 33.1956L39.5789 11.6733C42.8772 9.76023 47 12.1516 47 15.9778L47 59.0222C47 62.8484 42.8772 65.2398 39.5789 63.3267L2.47368 41.8044Z" fill="#3E274F"/>
<circle cx="23" cy="23" r="15" fill="#33CC33"/>
</g>
<defs>
<clipPath id="clip0_101_69">
<rect width="64" height="64" fill="white"/>
</clipPath>
</defs>
</svg>
