<svg width="64" height="64" viewBox="0 0 64 64" fill="none" xmlns="http://www.w3.org/2000/svg">
<g clip-path="url(#clip0_101_28)">
<path d="M61.5263 22.1956C64.8246 24.1086 64.8246 28.8914 61.5263 30.8044L24.4211 52.3267C21.1228 54.2398 17 51.8484 17 48.0222L17 4.97776C17 1.15159 21.1228 -1.23977 24.4211 0.673318L61.5263 22.1956Z" fill="#FDD1B8"/>
<path fill-rule="evenodd" clip-rule="evenodd" d="M6.92631 12.5342L44.0316 34.0564C46.6702 35.5869 46.6702 39.4131 44.0316 40.9436L6.92632 62.4658C4.28772 63.9963 0.989475 62.0832 0.989475 59.0222L0.989473 15.9778C0.989473 12.9168 4.28772 11.0037 6.92631 12.5342ZM44.5263 33.1956C47.8246 35.1086 47.8246 39.8914 44.5263 41.8044L7.42105 63.3267C4.12281 65.2398 -5.03373e-08 62.8484 -2.17585e-07 59.0222L-2.09912e-06 15.9778C-2.26637e-06 12.1516 4.1228 9.76023 7.42105 11.6733L44.5263 33.1956Z" fill="#3E274F"/>
<circle cx="28" cy="49" r="15" fill="#FF6600"/>
</g>
<defs>
<clipPath id="clip0_101_28">
<rect width="64" height="64" fill="white"/>
</clipPath>
</defs>
</svg>
