<svg width="19" height="19" viewBox="0 0 19 19" fill="none" xmlns="http://www.w3.org/2000/svg">
<path d="M17.1387 13.2001C17.0759 13.1031 16.9738 13.0383 16.8592 13.0228C15.3518 12.8259 14.2894 11.4443 14.4863 9.93687C14.6254 8.87207 15.371 7.98538 16.3961 7.66562C16.6043 7.59889 16.719 7.37605 16.6523 7.16787C16.6419 7.13548 16.6274 7.10453 16.6091 7.07581C15.9174 5.82738 14.6874 4.96879 13.277 4.74992C12.5663 4.78384 11.8659 4.93387 11.2037 5.19404C10.728 5.38545 10.2258 5.50268 9.71455 5.54157C9.2033 5.50268 8.70107 5.38545 8.22544 5.19404C7.56319 4.93387 6.8628 4.78384 6.15209 4.74992C4.67407 4.74992 1.79797 6.84543 1.79797 10.6874C1.79797 14.3385 4.4611 18.9998 6.54793 18.9998C7.34418 19.0069 8.13085 18.8257 8.84375 18.4709C9.11224 18.3229 9.409 18.2333 9.71459 18.2081C10.0201 18.2333 10.3169 18.3229 10.5854 18.4709C11.2983 18.8257 12.085 19.0069 12.8812 18.9998C14.5358 18.9998 16.4033 16.1593 17.1855 13.5271C17.2182 13.4165 17.2011 13.2971 17.1387 13.2001Z" fill="white"/>
<path d="M9.31866 4.74995C11.7223 4.74732 13.6702 2.79947 13.6728 0.395842C13.6728 0.177233 13.4956 0 13.277 0C10.8733 0.00263474 8.92545 1.95049 8.92285 4.35411C8.92281 4.57272 9.10005 4.74995 9.31866 4.74995Z" fill="white"/>
</svg>
