<svg width="12" height="12" viewBox="0 0 12 12" fill="none" xmlns="http://www.w3.org/2000/svg">
<path d="M5.99059 8.99797C5.79067 8.99836 5.59692 8.92865 5.44298 8.80093L0.309104 4.51743C0.134367 4.37202 0.0244811 4.16306 0.00362066 3.93652C-0.0172397 3.70999 0.0526339 3.48444 0.19787 3.30948C0.343106 3.13453 0.551808 3.02451 0.778063 3.00363C1.00432 2.98274 1.22959 3.0527 1.40433 3.19811L5.99059 7.03613L10.5768 3.33519C10.6644 3.26402 10.7651 3.21088 10.8732 3.17881C10.9813 3.14675 11.0946 3.13638 11.2068 3.14833C11.3189 3.16027 11.4275 3.19428 11.5265 3.2484C11.6254 3.30252 11.7127 3.37568 11.7833 3.46369C11.8617 3.55178 11.921 3.65512 11.9576 3.76724C11.9942 3.87936 12.0073 3.99784 11.9961 4.11526C11.9848 4.23268 11.9495 4.34652 11.8923 4.44963C11.835 4.55273 11.7572 4.6429 11.6635 4.71447L6.52964 8.85233C6.37128 8.95986 6.18148 9.01114 5.99059 8.99797Z" fill="white"/>
</svg>
