<svg width="16" height="16" viewBox="0 0 16 16" fill="none" xmlns="http://www.w3.org/2000/svg">
<path d="M3.75 8.00012C3.75 7.2074 3.96841 6.4648 4.34784 5.82896V3.13184H1.65072C0.58025 4.52209 0 6.21643 0 8.00012C0 9.7838 0.58025 11.4781 1.65072 12.8684H4.34784V10.1713C3.96841 9.53543 3.75 8.79284 3.75 8.00012Z" fill="#FBBD00"/>
<path d="M8 12.25L6.125 14.125L8 16C9.78372 16 11.478 15.4197 12.8683 14.3493V11.655H10.174C9.53262 12.0358 8.78691 12.25 8 12.25Z" fill="#0F9D58"/>
<path d="M4.34773 10.1711L1.6506 12.8683C1.86254 13.1435 2.09332 13.4071 2.34304 13.6569C3.85404 15.1678 5.86301 16 7.99989 16V12.25C6.44914 12.25 5.08998 11.415 4.34773 10.1711Z" fill="#31AA52"/>
<path d="M16 7.99988C16 7.51317 15.9559 7.02554 15.869 6.5506L15.7987 6.16626H8V9.91626H11.7954C11.4268 10.6494 10.8601 11.2476 10.174 11.6549L12.8682 14.3492C13.1435 14.1373 13.4071 13.9065 13.6568 13.6568C15.1678 12.1457 16 10.1368 16 7.99988Z" fill="#3C79E6"/>
<path d="M11.0052 4.99478L11.3367 5.32622L13.9883 2.67459L13.6569 2.34316C12.1459 0.832156 10.1369 0 8 0L6.125 1.875L8 3.75C9.13519 3.75 10.2025 4.19206 11.0052 4.99478Z" fill="#CF2D48"/>
<path d="M7.99992 3.75V0C5.86304 0 3.85407 0.832156 2.34304 2.34313C2.09332 2.59284 1.86254 2.85644 1.6506 3.13172L4.34773 5.82884C5.09001 4.585 6.44917 3.75 7.99992 3.75Z" fill="#EB4132"/>
</svg>
