<svg width="64" height="64" viewBox="0 0 64 64" fill="none" xmlns="http://www.w3.org/2000/svg">
<path d="M33.1956 44.5263C35.1086 47.8246 39.8914 47.8246 41.8044 44.5263L63.3267 7.42105C65.2398 4.1228 62.8484 0 59.0222 0H15.9778C12.1516 0 9.76023 4.12281 11.6733 7.42105L33.1956 44.5263Z" fill="#E5CDFF"/>
<path fill-rule="evenodd" clip-rule="evenodd" d="M51.4658 23.9263L29.9436 61.0316C28.4131 63.6702 24.5869 63.6702 23.0564 61.0316L1.53421 23.9263C0.00373448 21.2877 1.91682 17.9895 4.97776 17.9895H48.0222C51.0832 17.9895 52.9963 21.2877 51.4658 23.9263ZM30.8044 61.5263C28.8914 64.8246 24.1086 64.8246 22.1956 61.5263L0.673316 24.4211C-1.23977 21.1228 1.15158 17 4.97776 17H48.0222C51.8484 17 54.2398 21.1228 52.3267 24.4211L30.8044 61.5263Z" fill="#3E274F"/>
<circle cx="38" cy="44" r="15" fill="#BB7DFD"/>
</svg>
