<svg width="64" height="64" viewBox="0 0 64 64" fill="none" xmlns="http://www.w3.org/2000/svg">
<path d="M30.8044 2.47368C28.8914 -0.824561 24.1086 -0.824557 22.1956 2.47369L0.673317 39.579C-1.23977 42.8772 1.1516 47 4.97777 47L48.0222 47C51.8484 47 54.2398 42.8772 52.3267 39.5789L30.8044 2.47368Z" fill="#CAB8FD"/>
<path fill-rule="evenodd" clip-rule="evenodd" d="M12.5342 57.0737L34.0564 19.9684C35.5869 17.3298 39.4131 17.3298 40.9436 19.9684L62.4658 57.0737C63.9963 59.7123 62.0832 63.0105 59.0222 63.0105H15.9778C12.9168 63.0105 11.0037 59.7123 12.5342 57.0737ZM33.1956 19.4737C35.1086 16.1754 39.8914 16.1754 41.8044 19.4737L63.3267 56.5789C65.2398 59.8772 62.8484 64 59.0222 64H15.9778C12.1516 64 9.76023 59.8772 11.6733 56.5789L33.1956 19.4737Z" fill="#3E274F"/>
<circle cx="49" cy="39" r="15" fill="#5F35B2"/>
</svg>
