<svg width="64" height="64" viewBox="0 0 64 64" fill="none" xmlns="http://www.w3.org/2000/svg">
<path d="M30.8044 44.5263C28.8914 47.8246 24.1086 47.8246 22.1956 44.5263L0.673313 7.42105C-1.23977 4.1228 1.15159 0 4.97776 0H48.0222C51.8484 0 54.2398 4.12281 52.3267 7.42105L30.8044 44.5263Z" fill="#FFCEFF"/>
<path fill-rule="evenodd" clip-rule="evenodd" d="M12.5342 23.9263L34.0564 61.0316C35.5869 63.6702 39.4131 63.6702 40.9436 61.0316L62.4658 23.9263C63.9963 21.2877 62.0832 17.9895 59.0222 17.9895H15.9778C12.9168 17.9895 11.0037 21.2877 12.5342 23.9263ZM33.1956 61.5263C35.1086 64.8246 39.8914 64.8246 41.8044 61.5263L63.3267 24.4211C65.2398 21.1228 62.8484 17 59.0222 17H15.9778C12.1516 17 9.76023 21.1228 11.6733 24.4211L33.1956 61.5263Z" fill="#3E274F"/>
<circle r="15" transform="matrix(-1 0 0 1 26 44)" fill="#FF00FF"/>
</svg>
