<svg width="95" height="40" viewBox="0 0 95 40" fill="none" xmlns="http://www.w3.org/2000/svg">
<path d="M6.41055 25.8236H20.0223V30.9458H0V0H6.41055V25.8236Z" fill="#FF6600"/>
<path d="M22.3514 19.2349C22.3514 16.9536 22.7931 14.9203 23.6763 13.135C24.5595 11.3496 25.8274 9.96812 27.4799 8.99044C29.1466 8.01275 31.0769 7.52391 33.2707 7.52391C36.3905 7.52391 38.9334 8.47326 40.8993 10.3719C42.8794 12.2706 43.9835 14.8495 44.2114 18.1084L44.2541 19.6812C44.2541 23.2094 43.2641 26.0432 41.2839 28.1828C39.3038 30.3082 36.647 31.3709 33.3135 31.3709C29.98 31.3709 27.3161 30.3082 25.3217 28.1828C23.3415 26.0574 22.3514 23.1668 22.3514 19.5112V19.2349ZM28.5269 19.6812C28.5269 21.8633 28.9401 23.5352 29.7663 24.6971C30.5926 25.8448 31.7749 26.4187 33.3135 26.4187C34.8093 26.4187 35.9774 25.8519 36.8179 24.7184C37.6584 23.5707 38.0787 21.7428 38.0787 19.2349C38.0787 17.0953 37.6584 15.4375 36.8179 14.2614C35.9774 13.0854 34.795 12.4973 33.2707 12.4973C31.7607 12.4973 30.5926 13.0854 29.7663 14.2614C28.9401 15.4233 28.5269 17.2299 28.5269 19.6812Z" fill="#FF6600"/>
<path d="M47.1603 19.2774C47.1603 15.7492 48.0008 12.9083 49.6817 10.7545C51.377 8.60078 53.6563 7.52391 56.5197 7.52391C59.0554 7.52391 61.0284 8.38824 62.4387 10.1169L62.6952 7.94899H68.2937V30.1807C68.2937 32.1927 67.8307 33.9426 66.9047 35.4304C65.993 36.9182 64.7038 38.0517 63.0371 38.831C61.3703 39.6103 59.4187 40 57.1821 40C55.4869 40 53.8344 39.6599 52.2246 38.9798C50.6148 38.3139 49.3968 37.4495 48.5706 36.3868L51.3057 32.6461C52.8443 34.3606 54.7105 35.2179 56.9043 35.2179C58.5425 35.2179 59.8175 34.7786 60.7293 33.9001C61.641 33.0358 62.0968 31.803 62.0968 30.2019V28.9692C60.6723 30.5703 58.799 31.3709 56.4769 31.3709C53.699 31.3709 51.4482 30.294 49.7245 28.1403C48.015 25.9724 47.1603 23.1031 47.1603 19.5324V19.2774ZM53.3358 19.7237C53.3358 21.8066 53.756 23.4431 54.5965 24.6334C55.437 25.8094 56.5909 26.3974 58.0582 26.3974C59.9386 26.3974 61.2848 25.6961 62.0968 24.2933V14.6227C61.2706 13.22 59.9386 12.5186 58.1009 12.5186C56.6194 12.5186 55.4512 13.1208 54.5965 14.3252C53.756 15.5296 53.3358 17.3291 53.3358 19.7237Z" fill="#FF6600"/>
<g clip-path="url(#clip0_2_620)">
<path d="M83 32C86.1826 32 89.2348 30.7357 91.4853 28.4853C93.7357 26.2348 95 23.1826 95 20C95 16.8174 93.7357 13.7652 91.4853 11.5147C89.2348 9.26428 86.1826 8 83 8C79.8174 8 76.7652 9.26428 74.5147 11.5147C72.2643 13.7652 71 16.8174 71 20C71 23.1826 72.2643 26.2348 74.5147 28.4853C76.7652 30.7357 79.8174 32 83 32ZM81.5 17.75C81.5 18.992 80.828 20 80 20C79.172 20 78.5 18.992 78.5 17.75C78.5 16.508 79.172 15.5 80 15.5C80.828 15.5 81.5 16.508 81.5 17.75ZM77.4275 22.3505C77.5998 22.251 77.8045 22.2241 77.9966 22.2756C78.1887 22.3271 78.3525 22.4527 78.452 22.625C78.9127 23.4235 79.5756 24.0866 80.374 24.5474C81.1724 25.0082 82.0781 25.2505 83 25.25C83.9219 25.2505 84.8276 25.0082 85.626 24.5474C86.4244 24.0866 87.0873 23.4235 87.548 22.625C87.5969 22.539 87.6623 22.4636 87.7405 22.4029C87.8186 22.3423 87.908 22.2978 88.0035 22.2719C88.0989 22.246 88.1986 22.2392 88.2967 22.2519C88.3947 22.2647 88.4893 22.2967 88.575 22.3462C88.6607 22.3956 88.7357 22.4615 88.7958 22.5401C88.8558 22.6187 88.8998 22.7084 88.9251 22.804C88.9504 22.8996 88.9565 22.9993 88.9431 23.0973C88.9297 23.1953 88.897 23.2897 88.847 23.375C88.2547 24.4015 87.4024 25.2539 86.376 25.8464C85.3496 26.4389 84.1852 26.7505 83 26.75C81.8148 26.7505 80.6504 26.4389 79.624 25.8464C78.5976 25.2539 77.7453 24.4015 77.153 23.375C77.0535 23.2027 77.0266 22.998 77.0781 22.8059C77.1296 22.6138 77.2552 22.45 77.4275 22.3505ZM86 20C85.172 20 84.5 18.992 84.5 17.75C84.5 16.508 85.172 15.5 86 15.5C86.828 15.5 87.5 16.508 87.5 17.75C87.5 18.992 86.828 20 86 20Z" fill="#FF6600"/>
</g>
<defs>
<clipPath id="clip0_2_620">
<rect width="24" height="24" fill="white" transform="translate(71 8)"/>
</clipPath>
</defs>
</svg>
