<svg width="87" height="71" viewBox="0 0 87 71" fill="none" xmlns="http://www.w3.org/2000/svg">
<circle r="28.5" transform="matrix(-1 0 0 1 58.5 28.5)" fill="#7485DF"/>
<circle r="28.5" transform="matrix(-1 0 0 1 28.5 42.5)" fill="#1240BF" fill-opacity="0.9"/>
<g clip-path="url(#clip0_110_89)">
<path d="M28.5 56C32.0804 56 35.5142 54.5777 38.0459 52.0459C40.5777 49.5142 42 46.0804 42 42.5C42 38.9196 40.5777 35.4858 38.0459 32.9541C35.5142 30.4223 32.0804 29 28.5 29C24.9196 29 21.4858 30.4223 18.9541 32.9541C16.4223 35.4858 15 38.9196 15 42.5C15 46.0804 16.4223 49.5142 18.9541 52.0459C21.4858 54.5777 24.9196 56 28.5 56ZM26.8125 39.9688C26.8125 41.366 26.0565 42.5 25.125 42.5C24.1935 42.5 23.4375 41.366 23.4375 39.9688C23.4375 38.5715 24.1935 37.4375 25.125 37.4375C26.0565 37.4375 26.8125 38.5715 26.8125 39.9688ZM22.2309 45.1443C22.4247 45.0324 22.655 45.0021 22.8712 45.06C23.0873 45.1179 23.2716 45.2593 23.3835 45.4531C23.9017 46.3514 24.6475 47.0974 25.5457 47.6158C26.444 48.1342 27.4629 48.4069 28.5 48.4062C29.5371 48.4069 30.556 48.1342 31.4543 47.6158C32.3525 47.0974 33.0982 46.3514 33.6165 45.4531C33.6715 45.3564 33.7451 45.2715 33.833 45.2033C33.921 45.1351 34.0215 45.085 34.1289 45.0559C34.2363 45.0267 34.3484 45.0191 34.4587 45.0334C34.5691 45.0478 34.6755 45.0838 34.7719 45.1395C34.8682 45.1951 34.9526 45.2692 35.0202 45.3576C35.0878 45.446 35.1373 45.5469 35.1657 45.6545C35.1942 45.7621 35.201 45.8742 35.186 45.9845C35.1709 46.0947 35.1342 46.2009 35.0779 46.2969C34.4115 47.4517 33.4527 48.4107 32.298 49.0772C31.1432 49.7437 29.8333 50.0944 28.5 50.0938C27.1667 50.0944 25.8568 49.7437 24.702 49.0772C23.5473 48.4107 22.5885 47.4517 21.9221 46.2969C21.8102 46.1031 21.7799 45.8728 21.8378 45.6566C21.8957 45.4405 22.0372 45.2562 22.2309 45.1443ZM31.875 42.5C30.9435 42.5 30.1875 41.366 30.1875 39.9688C30.1875 38.5715 30.9435 37.4375 31.875 37.4375C32.8065 37.4375 33.5625 38.5715 33.5625 39.9688C33.5625 41.366 32.8065 42.5 31.875 42.5Z" fill="white"/>
</g>
<defs>
<clipPath id="clip0_110_89">
<rect width="27" height="27" fill="white" transform="translate(15 29)"/>
</clipPath>
</defs>
</svg>
